# xmcd CD database file generated by Grip 3.3.1
# 
# Track frame offsets:
#       150
#       21255
#       38619
#       50444
#       67378
#       90535
#       108952
#       132722
#       150264
#       168643
#       186613
#       204062
#       217797
#       238539
#       252783
#       262133
# 
# Disc length: 3540 seconds
# 
# Revision: 1
# Processed by: cddbd v1.5.2PL0 Copyright (c) Steve Scherf et al.
# Submitted via: Grip 3.3.1
# 
DISCID=e00dd210
DTITLE=Eddie Condon - The Town Hall Concerts, Vol. 8
DYEAR=1944
DGENRE=Jazz
TTITLE0=Ballin' the Jack 
TTITLE1=The Sheik of Araby 
TTITLE2=China Boy 
TTITLE3=There's a Small Hotel
TTITLE4=Royal Garden Blues 
TTITLE5=Wherever There's Love (There's You and Me)
TTITLE6=Impromptu Ensemble 
TTITLE7=Jingle Bells 
TTITLE8=On the Sunny Side of the Street 
TTITLE9=D.A. Blues (District Attorney) 
TTITLE10=Blue Skies 
TTITLE11=Rosetta 
TTITLE12=Exactly Like You
TTITLE13=Ja-Da 
TTITLE14=You're Lucky to Me 
TTITLE15=Impromptu Ensemble 
EXTD=YEAR: 1944
EXTT0=
EXTT1=
EXTT2=
EXTT3=
EXTT4=
EXTT5=
EXTT6=
EXTT7=
EXTT8=
EXTT9=
EXTT10=
EXTT11=
EXTT12=
EXTT13=
EXTT14=
EXTT15=
PLAYORDER=
